<?xml version="1.0" encoding="UTF-8"?>
<svg xmlns="http://www.w3.org/2000/svg" width="64" height="64" viewBox="0 0 64 64">
  <!-- Claude OS — Images -->
  <defs><linearGradient id="f" x1="0" y1="0" x2="0" y2="1"><stop offset="0" stop-color="#dda171"/><stop offset="1" stop-color="#c07d4d"/></linearGradient></defs>
  <g transform="translate(8 7.25) scale(3)"><path d="M3.0 3.3 H6.3 L7.9 5.1 H13.0 A1.3 1.3 0 0 1 14.3 6.4 V11.9 A1.3 1.3 0 0 1 13.0 13.2 H3.0 A1.3 1.3 0 0 1 1.7 11.9 V4.6 A1.3 1.3 0 0 1 3.0 3.3 Z" fill="url(#f)"/></g>
  <g transform="translate(20 22.7) scale(1.5)"><path d="M3.5 3H12.5A2 2 0 0 1 14.5 5V11A2 2 0 0 1 12.5 13H3.5A2 2 0 0 1 1.5 11V5A2 2 0 0 1 3.5 3ZM3.5 4.5H12.5A0.5 0.5 0 0 1 13 5V11A0.5 0.5 0 0 1 12.5 11.5H3.5A0.5 0.5 0 0 1 3 11V5A0.5 0.5 0 0 1 3.5 4.5Z" fill="#faf9f5" fill-rule="evenodd"/><path d="M4 6.4A1.2 1.2 0 1 1 6.4 6.4A1.2 1.2 0 1 1 4 6.4Z" fill="#faf9f5"/><path d="M3.1 12L6.9 7.6L9.2 10.2L10.9 8.4L12.9 12Z" fill="#faf9f5"/></g>
</svg>
