<?xml version="1.0" encoding="UTF-8"?>
<svg xmlns="http://www.w3.org/2000/svg" width="16" height="16" viewBox="0 0 16 16">
  <!-- Claude OS — serveur de fichiers -->
  <path d="M3 2.6H13A1.4 1.4 0 0 1 14.4 4V5.8A1.4 1.4 0 0 1 13 7.2H3A1.4 1.4 0 0 1 1.6 5.8V4A1.4 1.4 0 0 1 3 2.6ZM3.4 4.1H12.6A0.3 0.3 0 0 1 12.9 4.4V5.4A0.3 0.3 0 0 1 12.6 5.7H3.4A0.3 0.3 0 0 1 3.1 5.4V4.4A0.3 0.3 0 0 1 3.4 4.1Z" fill="#222222" fill-rule="evenodd"/>
  <path d="M3 8.8H13A1.4 1.4 0 0 1 14.4 10.2V12A1.4 1.4 0 0 1 13 13.4H3A1.4 1.4 0 0 1 1.6 12V10.2A1.4 1.4 0 0 1 3 8.8ZM3.4 10.3H12.6A0.3 0.3 0 0 1 12.9 10.6V11.6A0.3 0.3 0 0 1 12.6 11.9H3.4A0.3 0.3 0 0 1 3.1 11.6V10.6A0.3 0.3 0 0 1 3.4 10.3Z" fill="#222222" fill-rule="evenodd"/>
  <path d="M3.45 4.9A0.75 0.75 0 1 1 4.95 4.9A0.75 0.75 0 1 1 3.45 4.9Z" fill="#222222"/>
  <path d="M3.45 11.1A0.75 0.75 0 1 1 4.95 11.1A0.75 0.75 0 1 1 3.45 11.1Z" fill="#222222"/>
  <path d="M6.95 4.35H11.25A0.55 0.55 0 0 1 11.8 4.9V4.9A0.55 0.55 0 0 1 11.25 5.45H6.95A0.55 0.55 0 0 1 6.4 4.9V4.9A0.55 0.55 0 0 1 6.95 4.35Z" fill="#222222"/>
  <path d="M6.95 10.55H11.25A0.55 0.55 0 0 1 11.8 11.1V11.1A0.55 0.55 0 0 1 11.25 11.65H6.95A0.55 0.55 0 0 1 6.4 11.1V11.1A0.55 0.55 0 0 1 6.95 10.55Z" fill="#222222"/>
</svg>
