<?xml version="1.0" encoding="UTF-8"?>
<svg xmlns="http://www.w3.org/2000/svg" width="16" height="16" viewBox="0 0 16 16">
  <!-- Claude OS — image illisible -->
  <path d="M3.5 3H12.5A2 2 0 0 1 14.5 5V11A2 2 0 0 1 12.5 13H3.5A2 2 0 0 1 1.5 11V5A2 2 0 0 1 3.5 3ZM3.5 4.5H12.5A0.5 0.5 0 0 1 13 5V11A0.5 0.5 0 0 1 12.5 11.5H3.5A0.5 0.5 0 0 1 3 11V5A0.5 0.5 0 0 1 3.5 4.5Z" fill="#222222" fill-rule="evenodd"/>
  <g transform="translate(2.8 13.2) rotate(-45)"><path d="M0.75 -0.75H13.958A0.75 0.75 0 0 1 14.708 0V0A0.75 0.75 0 0 1 13.958 0.75H0.75A0.75 0.75 0 0 1 0 0V0A0.75 0.75 0 0 1 0.75 -0.75Z" fill="#222222"/></g>
</svg>
