<?xml version="1.0" encoding="UTF-8"?>
<svg xmlns="http://www.w3.org/2000/svg" width="16" height="16" viewBox="0 0 16 16">
  <!-- Claude OS — toutes les applications -->
  <path d="M2.9 4.2A1.3 1.3 0 1 1 5.5 4.2A1.3 1.3 0 1 1 2.9 4.2Z" fill="#222222"/>
  <path d="M6.7 4.2A1.3 1.3 0 1 1 9.3 4.2A1.3 1.3 0 1 1 6.7 4.2Z" fill="#222222"/>
  <path d="M10.5 4.2A1.3 1.3 0 1 1 13.1 4.2A1.3 1.3 0 1 1 10.5 4.2Z" fill="#222222"/>
  <path d="M2.9 8A1.3 1.3 0 1 1 5.5 8A1.3 1.3 0 1 1 2.9 8Z" fill="#222222"/>
  <path d="M6.7 8A1.3 1.3 0 1 1 9.3 8A1.3 1.3 0 1 1 6.7 8Z" fill="#222222"/>
  <path d="M10.5 8A1.3 1.3 0 1 1 13.1 8A1.3 1.3 0 1 1 10.5 8Z" fill="#222222"/>
  <path d="M2.9 11.8A1.3 1.3 0 1 1 5.5 11.8A1.3 1.3 0 1 1 2.9 11.8Z" fill="#222222"/>
  <path d="M6.7 11.8A1.3 1.3 0 1 1 9.3 11.8A1.3 1.3 0 1 1 6.7 11.8Z" fill="#222222"/>
  <path d="M10.5 11.8A1.3 1.3 0 1 1 13.1 11.8A1.3 1.3 0 1 1 10.5 11.8Z" fill="#222222"/>
</svg>
